<svg width="45" height="48" viewBox="0 0 45 48" fill="none" xmlns="http://www.w3.org/2000/svg">
<path d="M11.665 10.7437L12.1963 12.2046C11.7702 12.3761 11.4824 12.6777 11.333 13.1094C11.1836 13.541 11.1089 14.0391 11.1089 14.6035V16.2886C11.1089 16.8475 10.9788 17.3566 10.7188 17.8159C10.4642 18.2697 10.0602 18.6322 9.50684 18.9033C8.95345 19.1689 8.23128 19.3018 7.34033 19.3018V17.9238C7.81624 17.9238 8.15658 17.7772 8.36133 17.4839C8.57161 17.1851 8.67676 16.7866 8.67676 16.2886V14.6035C8.67676 14.0225 8.7653 13.4801 8.94238 12.9766C9.125 12.4674 9.4349 12.022 9.87207 11.6401C10.3092 11.2528 10.9069 10.9539 11.665 10.7437ZM12.1963 25.519L11.665 26.9883C10.9069 26.7725 10.3092 26.4709 9.87207 26.0835C9.4349 25.7017 9.125 25.2562 8.94238 24.7471C8.7653 24.2435 8.67676 23.7012 8.67676 23.1201V21.4351C8.67676 21.103 8.62972 20.8153 8.53564 20.5718C8.4471 20.3283 8.30322 20.1401 8.104 20.0073C7.91032 19.8745 7.65576 19.8081 7.34033 19.8081V18.4219C8.23128 18.4219 8.95345 18.5575 9.50684 18.8286C10.0602 19.0942 10.4642 19.4539 10.7188 19.9077C10.9788 20.3615 11.1089 20.8706 11.1089 21.4351V23.1201C11.1089 23.4964 11.1393 23.8451 11.2002 24.166C11.2666 24.487 11.3773 24.7637 11.5322 24.9961C11.6927 25.2285 11.9141 25.4028 12.1963 25.519ZM18.0898 20.2065V11.9141H20.9951V20.2065C20.9951 21.0145 20.8097 21.7145 20.439 22.3066C20.0737 22.8988 19.5757 23.3581 18.9448 23.6846C18.3195 24.0055 17.6167 24.166 16.8364 24.166C16.0285 24.166 15.3091 24.0304 14.6782 23.7593C14.0529 23.4881 13.5604 23.0703 13.2007 22.5059C12.8465 21.9414 12.6694 21.222 12.6694 20.3477H15.5913C15.5913 20.7572 15.6383 21.0781 15.7324 21.3105C15.8265 21.5374 15.9648 21.6979 16.1475 21.792C16.3356 21.8805 16.5653 21.9248 16.8364 21.9248C17.1021 21.9248 17.3262 21.8584 17.5088 21.7256C17.6969 21.5872 17.8408 21.3908 17.9404 21.1362C18.04 20.8761 18.0898 20.5662 18.0898 20.2065ZM22.2651 12.2046L22.7964 10.7437C23.5601 10.9539 24.1577 11.2528 24.5894 11.6401C25.0265 12.022 25.3337 12.4674 25.5107 12.9766C25.6934 13.4801 25.7847 14.0225 25.7847 14.6035V16.2886C25.7847 16.6206 25.8289 16.9084 25.9175 17.1519C26.0116 17.3953 26.1582 17.5863 26.3574 17.7246C26.5566 17.8574 26.814 17.9238 27.1294 17.9238V19.2935C26.2384 19.2935 25.5135 19.1606 24.9546 18.895C24.4012 18.6294 23.9945 18.2697 23.7344 17.8159C23.4798 17.3566 23.3525 16.8475 23.3525 16.2886V14.6035C23.3525 14.2272 23.3221 13.8786 23.2612 13.5576C23.2004 13.2367 23.0897 12.96 22.9292 12.7275C22.7743 12.4896 22.5529 12.3153 22.2651 12.2046ZM22.7964 26.9883L22.2651 25.519C22.5529 25.4028 22.7743 25.2285 22.9292 24.9961C23.0897 24.7637 23.2004 24.487 23.2612 24.166C23.3221 23.8451 23.3525 23.4964 23.3525 23.1201V21.4351C23.3525 20.8706 23.4798 20.3615 23.7344 19.9077C23.9945 19.4539 24.4012 19.0942 24.9546 18.8286C25.5135 18.563 26.2384 18.4302 27.1294 18.4302V19.8081C26.6535 19.8081 26.3104 19.9575 26.1001 20.2563C25.8898 20.5496 25.7847 20.9425 25.7847 21.4351V23.1201C25.7847 23.7012 25.6934 24.2435 25.5107 24.7471C25.3337 25.2562 25.0265 25.7017 24.5894 26.0835C24.1577 26.4709 23.5601 26.7725 22.7964 26.9883Z" fill="white"/>
<path d="M31.8993 6.87615L20.5949 0.772954C18.686 -0.257687 16.3141 -0.257616 14.4051 0.772954L3.10081 6.87615C1.18812 7.90869 0 9.83434 0 11.9015V24.0984C0 26.1656 1.18812 28.0913 3.10073 29.1238L14.4051 35.227C16.3144 36.2578 18.6862 36.2575 20.5949 35.227L31.8992 29.1238C33.8119 28.0913 35 26.1656 35 24.0984V11.9015C35 9.83441 33.8119 7.90876 31.8993 6.87615ZM31.9957 24.0984C31.9957 25.1632 31.3837 26.1551 30.3985 26.687L19.0942 32.7902C18.1108 33.3212 16.8892 33.3212 15.9058 32.7902L4.60145 26.687C3.61627 26.1551 3.00429 25.1632 3.00429 24.0984V11.9015C3.00429 10.8368 3.61627 9.84488 4.60152 9.31304L15.9058 3.20984C16.8892 2.67884 18.1112 2.67906 19.0942 3.20984L30.3986 9.31297C31.3837 9.84488 31.9957 10.8367 31.9957 11.9015V24.0984Z" fill="white"/>
</svg>
