<svg width="35" height="36" viewBox="0 0 35 36" fill="none" xmlns="http://www.w3.org/2000/svg">
<path d="M31.8993 6.87615L20.5949 0.772954C18.686 -0.257687 16.3141 -0.257616 14.4051 0.772954L3.10081 6.87615C1.18812 7.90869 0 9.83434 0 11.9015V24.0984C0 26.1656 1.18812 28.0913 3.10073 29.1238L14.4051 35.227C16.3144 36.2578 18.6862 36.2575 20.5949 35.227L31.8992 29.1238C33.8119 28.0913 35 26.1656 35 24.0984V11.9015C35 9.83441 33.8119 7.90876 31.8993 6.87615ZM31.9957 24.0984C31.9957 25.1632 31.3837 26.1551 30.3985 26.687L19.0942 32.7902C18.1108 33.3212 16.8892 33.3212 15.9058 32.7902L4.60145 26.687C3.61627 26.1551 3.00429 25.1632 3.00429 24.0984V11.9015C3.00429 10.8368 3.61627 9.84488 4.60152 9.31304L15.9058 3.20984C16.8892 2.67884 18.1112 2.67906 19.0942 3.20984L30.3986 9.31297C31.3837 9.84488 31.9957 10.8367 31.9957 11.9015V24.0984Z" fill="white"/>
</svg>
