<svg width="21" height="17" viewBox="0 0 21 17" fill="none" xmlns="http://www.w3.org/2000/svg">
<path d="M4.66504 0.743652L5.19629 2.20459C4.77018 2.37614 4.48242 2.67773 4.33301 3.10938C4.18359 3.54102 4.10889 4.03906 4.10889 4.60352V6.28857C4.10889 6.84749 3.97884 7.35661 3.71875 7.81592C3.46419 8.26969 3.06022 8.63216 2.50684 8.90332C1.95345 9.16895 1.23128 9.30176 0.340332 9.30176V7.92383C0.816243 7.92383 1.15658 7.77718 1.36133 7.48389C1.57161 7.18506 1.67676 6.78662 1.67676 6.28857V4.60352C1.67676 4.02246 1.7653 3.48014 1.94238 2.97656C2.125 2.46745 2.4349 2.02197 2.87207 1.64014C3.30924 1.25277 3.9069 0.953939 4.66504 0.743652ZM5.19629 15.519L4.66504 16.9883C3.9069 16.7725 3.30924 16.4709 2.87207 16.0835C2.4349 15.7017 2.125 15.2562 1.94238 14.7471C1.7653 14.2435 1.67676 13.7012 1.67676 13.1201V11.4351C1.67676 11.103 1.62972 10.8153 1.53564 10.5718C1.4471 10.3283 1.30322 10.1401 1.104 10.0073C0.910319 9.87451 0.655762 9.80811 0.340332 9.80811V8.42188C1.23128 8.42188 1.95345 8.55745 2.50684 8.82861C3.06022 9.09424 3.46419 9.45394 3.71875 9.90771C3.97884 10.3615 4.10889 10.8706 4.10889 11.4351V13.1201C4.10889 13.4964 4.13932 13.8451 4.2002 14.166C4.2666 14.487 4.37728 14.7637 4.53223 14.9961C4.69271 15.2285 4.91406 15.4028 5.19629 15.519ZM11.0898 10.2065V1.91406H13.9951V10.2065C13.9951 11.0145 13.8097 11.7145 13.439 12.3066C13.0737 12.8988 12.5757 13.3581 11.9448 13.6846C11.3195 14.0055 10.6167 14.166 9.83643 14.166C9.02848 14.166 8.30908 14.0304 7.67822 13.7593C7.0529 13.4881 6.56038 13.0703 6.20068 12.5059C5.84652 11.9414 5.66943 11.222 5.66943 10.3477H8.59131C8.59131 10.7572 8.63835 11.0781 8.73242 11.3105C8.8265 11.5374 8.96484 11.6979 9.14746 11.792C9.33561 11.8805 9.56527 11.9248 9.83643 11.9248C10.1021 11.9248 10.3262 11.8584 10.5088 11.7256C10.6969 11.5872 10.8408 11.3908 10.9404 11.1362C11.04 10.8761 11.0898 10.5662 11.0898 10.2065ZM15.2651 2.20459L15.7964 0.743652C16.5601 0.953939 17.1577 1.25277 17.5894 1.64014C18.0265 2.02197 18.3337 2.46745 18.5107 2.97656C18.6934 3.48014 18.7847 4.02246 18.7847 4.60352V6.28857C18.7847 6.62061 18.8289 6.90837 18.9175 7.15186C19.0116 7.39535 19.1582 7.58626 19.3574 7.72461C19.5566 7.85742 19.814 7.92383 20.1294 7.92383V9.29346C19.2384 9.29346 18.5135 9.16064 17.9546 8.89502C17.4012 8.62939 16.9945 8.26969 16.7344 7.81592C16.4798 7.35661 16.3525 6.84749 16.3525 6.28857V4.60352C16.3525 4.22721 16.3221 3.87858 16.2612 3.55762C16.2004 3.23665 16.0897 2.95996 15.9292 2.72754C15.7743 2.48958 15.5529 2.31527 15.2651 2.20459ZM15.7964 16.9883L15.2651 15.519C15.5529 15.4028 15.7743 15.2285 15.9292 14.9961C16.0897 14.7637 16.2004 14.487 16.2612 14.166C16.3221 13.8451 16.3525 13.4964 16.3525 13.1201V11.4351C16.3525 10.8706 16.4798 10.3615 16.7344 9.90771C16.9945 9.45394 17.4012 9.09424 17.9546 8.82861C18.5135 8.56299 19.2384 8.43018 20.1294 8.43018V9.80811C19.6535 9.80811 19.3104 9.95752 19.1001 10.2563C18.8898 10.5496 18.7847 10.9425 18.7847 11.4351V13.1201C18.7847 13.7012 18.6934 14.2435 18.5107 14.7471C18.3337 15.2562 18.0265 15.7017 17.5894 16.0835C17.1577 16.4709 16.5601 16.7725 15.7964 16.9883Z" fill="white"/>
</svg>
